<?xml version="1.0" encoding="UTF-8"?>
<svg xmlns="http://www.w3.org/2000/svg">
  <defs>
    <symbol id="mark" viewBox="0 0 48 48">
      <rect width="48" height="48" fill="none"/>
      <rect x="8" y="10" width="32" height="28" fill="none" stroke="currentColor" stroke-width="2.4"/>
      <path d="M14 18h20M14 24h14M14 30h17" stroke="currentColor" stroke-width="2.2" stroke-linecap="round"/>
    </symbol>
    <symbol id="i-check" viewBox="0 0 24 24"><g fill="none" stroke="currentColor" stroke-width="1.8" stroke-linecap="round" stroke-linejoin="round"><path d="M4 12.5 9.5 18 20 6"/></g></symbol>
    <symbol id="i-arrow" viewBox="0 0 24 24"><g fill="none" stroke="currentColor" stroke-width="1.5" stroke-linecap="round" stroke-linejoin="round"><path d="M4 12h15M13 6l6 6-6 6"/></g></symbol>
    <symbol id="i-wa" viewBox="0 0 24 24"><path fill="currentColor" d="M17.472 14.382c-.297-.149-1.758-.867-2.03-.967-.273-.099-.471-.148-.67.15-.197.297-.767.966-.94 1.164-.173.199-.347.223-.644.075-.297-.15-1.255-.463-2.39-1.475-.883-.788-1.48-1.761-1.653-2.059-.173-.297-.018-.458.13-.606.134-.133.298-.347.446-.52.149-.174.198-.298.298-.497.099-.198.05-.371-.025-.52-.075-.149-.669-1.612-.916-2.207-.242-.579-.487-.5-.669-.51-.173-.008-.371-.01-.57-.01-.198 0-.52.074-.792.372-.272.297-1.04 1.016-1.04 2.479 0 1.462 1.065 2.875 1.213 3.074.149.198 2.096 3.2 5.077 4.487.709.306 1.262.489 1.694.625.712.227 1.36.195 1.871.118.571-.085 1.758-.719 2.006-1.413.248-.694.248-1.289.173-1.413-.074-.124-.272-.198-.57-.347m-5.421 7.403h-.004a9.87 9.87 0 01-5.031-1.378l-.361-.214-3.741.982.998-3.648-.235-.374a9.86 9.86 0 01-1.51-5.26c.001-5.45 4.436-9.884 9.888-9.884 2.64 0 5.122 1.03 6.988 2.898a9.825 9.825 0 012.893 6.994c-.003 5.45-4.437 9.884-9.885 9.884m8.413-18.297A11.815 11.815 0 0012.05 0C5.495 0 .16 5.335.157 11.892c0 2.096.547 4.142 1.588 5.945L.057 24l6.305-1.654a11.882 11.882 0 005.683 1.448h.005c6.554 0 11.89-5.335 11.893-11.893a11.821 11.821 0 00-3.48-8.413z"/></symbol>
    <symbol id="i-chat" viewBox="0 0 24 24"><g fill="none" stroke="currentColor" stroke-width="1.5" stroke-linecap="round" stroke-linejoin="round"><path d="M4 5h16v11H10l-5 4V5z"/></g></symbol>
    <symbol id="i-cal" viewBox="0 0 24 24"><g fill="none" stroke="currentColor" stroke-width="1.5" stroke-linecap="round" stroke-linejoin="round"><rect x="3.5" y="5" width="17" height="15"/><path d="M3.5 9.5h17M8 3v4M16 3v4"/></g></symbol>
    <symbol id="i-tiempo" viewBox="0 0 24 24"><g fill="none" stroke="currentColor" stroke-width="1.5" stroke-linecap="round" stroke-linejoin="round"><circle cx="12" cy="12" r="9"/><path d="M12 7v5l3.5 2.5"/></g></symbol>

    <!-- Impresión Gran Formato: banner colgante -->
    <symbol id="i-lona" viewBox="0 0 24 24">
      <g fill="none" stroke="currentColor" stroke-width="1.5" stroke-linecap="round" stroke-linejoin="round">
        <path d="M5 4h14"/>
        <path d="M7 4v2M17 4v2"/>
        <rect x="5" y="6" width="14" height="13"/>
        <path d="M8 11h8M8 14h5"/>
      </g>
    </symbol>

    <!-- Vinil y Rotulación: rollo de material -->
    <symbol id="i-vinil" viewBox="0 0 24 24">
      <g fill="none" stroke="currentColor" stroke-width="1.5" stroke-linecap="round" stroke-linejoin="round">
        <ellipse cx="6.5" cy="12" rx="2.5" ry="7"/>
        <path d="M6.5 5H18a2 2 0 0 1 2 2v10a2 2 0 0 1-2 2H6.5"/>
        <path d="M10 9h6M10 12h4M10 15h5"/>
      </g>
    </symbol>

    <!-- Artículos Promocionales: bolsa/regalo -->
    <symbol id="i-promo" viewBox="0 0 24 24">
      <g fill="none" stroke="currentColor" stroke-width="1.5" stroke-linecap="round" stroke-linejoin="round">
        <path d="M5 8h14l-1.5 12H6.5z"/>
        <path d="M9 8V6a3 3 0 0 1 6 0v2"/>
        <path d="M9.5 14l1.5 1.5 3.5-3.5"/>
      </g>
    </symbol>

    <!-- Brazaletes para Eventos -->
    <symbol id="i-brazalete" viewBox="0 0 24 24">
      <g fill="none" stroke="currentColor" stroke-width="1.5" stroke-linecap="round" stroke-linejoin="round">
        <rect x="4" y="8" width="16" height="8" rx="4"/>
        <path d="M9 8v8"/>
        <path d="M14 8v8"/>
        <circle cx="17" cy="12" r="1.2" fill="currentColor" stroke="none"/>
      </g>
    </symbol>

    <!-- Sublimación: playera/prenda -->
    <symbol id="i-sublimacion" viewBox="0 0 24 24">
      <g fill="none" stroke="currentColor" stroke-width="1.5" stroke-linecap="round" stroke-linejoin="round">
        <path d="M3 8l3.5-4 2.5 2a3 3 0 0 0 6 0l2.5-2 3.5 4-3 2v9H6v-9z"/>
      </g>
    </symbol>

    <!-- Grabado Láser / Técnicas -->
    <symbol id="i-laser" viewBox="0 0 24 24">
      <g fill="none" stroke="currentColor" stroke-width="1.5" stroke-linecap="round" stroke-linejoin="round">
        <circle cx="12" cy="9" r="3"/>
        <path d="M12 12v8"/>
        <path d="M9 18l3 3 3-3"/>
        <path d="M9 7.2L5.5 4M14.8 7.2L18.5 4"/>
      </g>
    </symbol>
  </defs>
</svg>
